#!OML:ASF F:\VICON\USERDATA\INSTALL\rory3\rory3.ASF
:FULLY-SPECIFIED
:DEGREES
27
root -5.861005278225498 17.691312975326326 2.905157878195406 -1.3157269852654423 41.416097647478864 -12.733115837490857
lfemur -2.037575046135636 20.59898957718018 9.388324733509153
ltibia 36.67008761928755
lfoot 2.9544918356745136 14.859989958915273
ltoes -33.08839102918735
rfemur -28.777593022378262 17.98628600367607 26.75869024136119
rtibia 32.21859162316056
rfoot -4.974953954627439 22.55388604180937
rtoes 30.600693808027405
lowerback 1.276741929759671 -9.657228825649186 -15.87978631929508
upperback 0.02872814211786867 -12.873788554964118 -3.3657505343899383
thorax 1.9705346436185374 -6.432298352318835 4.665094648840801
lowerneck -5.134410726517661 21.672387692253313 1.4819637340130707
upperneck 17.417703374621958 32.386388573002705 -12.212189977126556
head 8.627862345221018 14.43708771251872 -0.8021595449060095
lclavicle -5.008195736319774e-15 -1.0203021363130002e-14
lhumerus 98.44579029835847 -51.29199278794174 39.741809144704575
lradius 30.49380638206849
lwrist -2.8174266417316502
lhand -13.958600122904363 3.2000083382959943
lfingers 7.125020000000001
lthumb -167.83100014177944 212.82599021439006
rclavicle -5.008195736319774e-15 -1.0203021363130002e-14
rhumerus 10.033807222413913 -16.19259050729146 -80.03729554700952
rradius 103.55798848699561
rwrist -15.842401039922056
rhand -60.92579178707427 25.604792768402625
rfingers 7.125020000000001
rthumb -33.03279188950808 -1.3884679495056673
28
root -5.8471455564785115 17.691312975326326 3.0077575131754166 -0.34462788976181 40.24489813412712 -11.649212617717865
lfemur -1.4481556196857142 20.695190575759842 8.882575659965692
ltibia 36.58368810539685
lfoot 3.638651481988335 15.560088209742597
ltoes -27.137992030775514
rfemur -29.01259266778873 18.69238656562129 26.284891149812836
rtibia 32.80759118805865
rfoot -4.854923842460971 23.06998699368817
rtoes 31.41639371321064
lowerback 1.2727819860340497 -9.965347890621086 -16.0941857080465
upperback -0.43838347461202964 -13.329188840772662 -3.5150803972981373
thorax 1.5684755736761313 -6.604058039468894 4.6224247577767255
lowerneck -5.127180769132449 21.846087710755622 0.9470133565782674
upperneck 16.408804337698 32.49038780101826 -12.468089681686708
head 8.251943552511477 14.5217871719723 -0.8723049029395921
lclavicle -5.008194370110517e-15 -1.0203020701704612e-14
lhumerus 100.78599139603516 -49.27099499185937 41.152007684415196
lradius 31.514406218191148
lwrist -1.477227829822013
lhand -12.998600868290907 3.649018458953627
lfingers 7.125020000000001
lthumb -166.90500086641472 213.21798845297417
rclavicle -5.008194370110517e-15 -1.0203020701704612e-14
rhumerus 14.24460676232793 -17.057790012577605 -76.70739704483533
rradius 104.8449873001332
rwrist -11.819602620374082
rhand -60.93699143002453 26.11279250899237
rfingers 7.125020000000001
rthumb -33.04339162300615 -0.8782166995248488
29
root -5.829555917495009 17.69251290352734 3.1003972286420125 0.4770277643957854 39.169998252730245 -10.73170961672318
lfemur -0.8735209769599273 20.73358921626609 8.44624524012189
ltibia 36.443788165408556
lfoot 4.934450397940334 15.857588056460893
ltoes -30.695889943347485
rfemur -29.195991732203083 19.19038549441587 25.88819144771503
rtibia 33.329190381395996
rfoot -4.553734296645977 23.710985654831305
rtoes 32.9473921312795
lowerback 1.2528418285853777 -10.128087700220776 -15.949486698418385
upperback -0.8188520977565399 -13.578788349365794 -3.8322496088965763
thorax 1.1073965603087705 -6.673578194507009 4.254245576721124
lowerneck -5.349220544091991 21.98658719946143 0.8935104601834495
upperneck 15.80250512514959 32.64318727725308 -12.825088872494893
head 8.150763864652559 14.592288012290009 -0.9421852458534739
lclavicle -5.008194888884658e-15 -1.0203021429272721e-14
lhumerus 102.83499197063391 -48.01989431784939 42.94340770023595
lradius 32.895905113945865
lwrist -0.15161612150824766
lhand -13.48500049610571 3.6609782986433537
lfingers 7.125020000000001
lthumb -167.3740005206486 213.25899083636006
rclavicle -5.008194888884658e-15 -1.0203021429272721e-14
rhumerus 18.12020478225447 -18.49078971275327 -73.31729909448714
rradius 106.06298776256004
rwrist -7.970923866289057
rhand -60.85139120579122 27.45489224382505
rfingers 7.125020000000001
rthumb -32.96199156027335 0.4466712413101259
30
root -5.81767615810605 17.695012748848807 3.18533682773973 1.2358447704670112 38.122498764193544 -9.798594822051072
lfemur -0.2185513498656313 20.547890248670143 7.963545864579665
ltibia 36.16978827963
lfoot 5.755249797084168 16.335989374523876
ltoes -28.516490909191997
rfemur -29.28889292722363 19.88998456621686 25.403492471498694
rtibia 33.71579006941629
rfoot -4.632344134973498 24.00898683281006
rtoes 33.158992673906155
lowerback 1.395361729779419 -10.479288357429645 -16.063085871398055
upperback -1.088193811403543 -14.107986991180631 -3.7353301988582124
thorax 0.8866738977134649 -6.909177940520594 4.409105303176354
lowerneck -6.488817360780448 22.408187915439633 -0.7887935826557211
upperneck 15.09000572874167 33.22428733591365 -12.70508915133335
head 7.855924738858233 14.789886718850312 -0.6277572004990033
lclavicle -5.008194718108509e-15 -1.0203021539510821e-14
lhumerus 104.58199013153683 -45.68979479908574 44.65410624745547
lradius 34.17140474349111
lwrist 0.5439336576115181
lhand -15.80569869119206 3.0931287175513624
lfingers 7.125020000000001
lthumb -169.6119988071468 212.8169926668333
rclavicle -5.008194718108509e-15 -1.0203021539510821e-14
rhumerus 22.686404051160878 -19.170689564760643 -70.01620084161806
rradius 107.20398487919093
rwrist -3.4125462199666217
rhand -60.704991323550374 25.060993265834213
rfingers 7.125020000000001
rthumb -32.82279118624777 -1.9764368863815225
31
root -5.8089363314190186 17.701312397390705 3.2570764957756184 1.9958428819347205 37.19399899076627 -8.88452843720431
lfemur 0.20527426102835378 20.720088974063263 7.497347058425724
ltibia 35.999888476233224
lfoot 6.705819099434422 16.470389925333706
ltoes -27.645591427692022
rfemur -29.41029202313957 20.411583904235002 24.8616930022115
rtibia 33.97379006169614
rfoot -4.328144213650211 24.45338662760649
rtoes 34.15239182114315
lowerback 1.3677818441634932 -10.30578780390903 -15.85188622194862
upperback -1.4684532161095003 -13.911787159051563 -4.413478764821329
thorax 0.2361483108339446 -6.744527719469042 3.7032767378136846
lowerneck -5.55804986186121 22.288586253280823 0.45726778953682146
upperneck 14.33300695951938 32.86348646440492 -13.291188562160087
head 7.722465068918346 14.747386844382298 -1.0550131919065413
lclavicle -5.0081954334342685e-15 -1.0203021473367894e-14
lhumerus 107.52598894385758 -45.05529534005656 44.61630694882546
lradius 35.50710376010849
lwrist 1.4775997942737735
lhand -18.45799672721496 1.7744384583049566
lfingers 7.125020000000001
lthumb -172.17199658321977 211.60899311525185
rclavicle -5.0081954334342685e-15 -1.0203021473367894e-14
rhumerus 25.003803125363405 -21.75488844068673 -66.737802769429
rradius 108.39898589138086
rwrist -0.5002499721377696
rhand -59.88289194131441 23.42189444580128
rfingers 7.125020000000001
rthumb -32.04039197511586 -3.7759059523135523
32
root -5.803376434884475 17.700012459880995 3.3196861332023357 2.4423295292563125 36.1430994074813 -8.356438152074958
lfemur 0.7839269110829648 20.733889800551445 7.347467179481807
ltibia 35.88568901679732
lfoot 5.1554602628474475 17.864487268969278
ltoes -17.259795205092857
rfemur -29.48549238688947 20.930784607378655 24.6697933394649
rtibia 34.24528922722536
rfoot -4.154114328971565 25.021986821395387
rtoes 34.41559156743892
lowerback 1.2618920509939477 -10.054287846628284 -15.385786181538235
upperback -1.7823628838390166 -13.595687516536856 -4.994647699756298
thorax -0.3423795315413522 -6.540407830251674 2.958158165459159
lowerneck -4.924251446690432 21.989286595786123 1.6772932543971977
upperneck 14.067807281162924 32.36938799264372 -13.730087414087073
head 7.757235103059744 14.590988129050917 -1.4028399420890918
lclavicle -5.008195098326814e-15 -1.020302092217803e-14
lhumerus 110.7799864300766 -43.90349508471611 43.69380701395904
lradius 36.636203295217676
lwrist 3.1914785118623623
lhand -20.53369498723899 0.23750887376904117
lfingers 7.125020000000001
lthumb -174.17499490338395 210.13699433496186
rclavicle -5.008195098326814e-15 -1.020302092217803e-14
rhumerus 26.700403687576163 -24.121586901149577 -63.358504481091835
rradius 109.43398694340718
rwrist 0.9635578623991776
rhand -59.58289280543409 21.40569569583573
rfingers 7.125020000000001
rthumb -31.754592589434928 -5.849124560601279
33
root -5.7950366122214705 17.71051184693182 3.381025884022749 2.984034396997302 35.100199736010715 -7.936252100703058
lfemur 1.1703217510006745 20.82638960463079 7.1543370333217595
ltibia 35.639689209590514
lfoot 8.514677782077072 16.677288224299545
ltoes -25.404293037317778
rfemur -29.646592089090483 22.002582923570678 24.34629357328786
rtibia 34.29388936005243
rfoot -4.3264744557856405 24.977587340721932
rtoes 33.688792211851634
lowerback 0.8653635798993595 -10.097388747141888 -15.194387552694604
upperback -1.9008126716685458 -13.588688491794521 -4.999807258516478
thorax -0.29355365389995053 -6.540118291215803 2.800538520549681
lowerneck -5.336850469402164 22.2572875708949 0.8408076435372064
upperneck 13.371808041918644 32.59738799593328 -13.493988343295285
head 7.438546067978775 14.720286746979948 -1.2466813973774262
lclavicle -5.0081950081050975e-15 -1.0203021230844426e-14
lhumerus 112.86998892314455 -41.67629640508821 43.60470721116642
lradius 37.60850281942595
lwrist 4.424687892656882
lhand -21.8615941055877 -0.7164118247502955
lfingers 7.125020000000001
lthumb -175.45799406956803 209.21499479504132
rclavicle -5.0081950081050975e-15 -1.0203021230844426e-14
rhumerus 29.273202528425514 -25.561987185075502 -60.43790650020632
rradius 109.61098663739463
rwrist 2.794981864440498
rhand -59.92399193802163 20.118196509352877
rfingers 7.125020000000001
rthumb -32.079491996005444 -7.071784032135159
34
root -5.7971265749481455 17.722111173264217 3.4199157307380776 3.2236259477924136 34.37669998866881 -7.496365233766468
lfemur 1.6364013308576126 20.49709050249784 6.943006919690255
ltibia 35.4033892860991
lfoot 9.40898695598531 16.683689006478858
ltoes -25.403492049033744
rfemur -29.420992323447862 22.31508327218414 24.152894186908775
rtibia 34.11238949460014
rfoot -3.937204362497714 25.461685100646946
rtoes 34.206091264916886
lowerback 0.928334407475981 -9.924037832765176 -15.201187349867952
upperback -1.9986926524586597 -13.388487874259923 -5.200757173803591
thorax -0.5122571894647131 -6.423598254048581 2.645838847196779
lowerneck -4.798531535154383 22.25268632715963 1.062194989681891
upperneck 12.316908977408387 32.38038663920377 -13.831287849212142
head 7.078957194528912 14.72738674214031 -1.4973190560272258
lclavicle -5.008195813652582e-15 -1.0203021759986331e-14
lhumerus 114.56698536938251 -40.525496867575654 43.718707123568876
lradius 38.37720240281552
lwrist 5.640577495997805
lhand -23.53049272561507 -2.1023408022152097
lfingers 7.125020000000001
lthumb -177.06899281732646 207.85699545063187
rclavicle -5.008195813652582e-15 -1.0203021759986331e-14
rhumerus 30.573202738835064 -27.282285769307162 -57.51410743305996
rradius 109.89598445073815
rwrist 3.780071076186335
rhand -60.018991683006966 20.48509641238104
rfingers 7.125020000000001
rthumb -32.16989231921683 -6.686593958406117
